<svg width="137" height="174" viewBox="0 0 137 174" fill="none" xmlns="http://www.w3.org/2000/svg">
<rect width="136.68" height="174" rx="10" fill="#FFFBFB"/>
<rect width="136.68" height="174" rx="10" fill="#FFFBFB"/>
<rect width="136.68" height="174" rx="10" fill="#FFFBFB"/>
<rect width="136.68" height="174" rx="10" fill="#FFFBFB"/>
<rect width="136.68" height="174" rx="10" fill="#E38F11"/>
<path d="M62.9572 42.0038H67.0212V71.6358H62.9572V42.0038ZM59.4052 53.2998H64.3012V56.7238H59.4052V53.2998ZM56.4612 42.4518H60.4612V70.2918H56.4612V42.4518ZM42.3812 45.0438H54.0932V64.2438H42.3812V45.0438ZM50.1252 48.3718H46.3492V60.9158H50.1252V48.3718ZM77.5787 45.2998H81.0667V47.1558C81.0667 52.8198 78.4107 57.9078 72.6827 59.7958L70.5707 56.4358C75.4987 54.8038 77.5787 50.9318 77.5787 47.1558V45.2998ZM78.4427 45.2998H81.8987V47.1558C81.8987 50.6118 83.8827 54.0038 88.6507 55.4438L86.6347 58.7718C81.0027 57.0758 78.4427 52.4358 78.4427 47.1558V45.2998ZM71.6907 43.9878H87.6907V47.3798H71.6907V43.9878ZM90.0587 42.0038H94.3147V59.5718H90.0587V42.0038ZM93.1307 48.8198H98.2507V52.3078H93.1307V48.8198ZM84.6507 60.1158C90.7947 60.1158 94.6667 62.2598 94.6667 65.8758C94.6667 69.4918 90.7947 71.6358 84.6507 71.6358C78.4747 71.6358 74.6027 69.4918 74.6027 65.8758C74.6027 62.2598 78.4747 60.1158 84.6507 60.1158ZM84.6507 63.4438C80.8747 63.4438 78.8267 64.2118 78.8267 65.8758C78.8267 67.5398 80.8747 68.3718 84.6507 68.3718C88.4267 68.3718 90.4427 67.5398 90.4427 65.8758C90.4427 64.2118 88.4267 63.4438 84.6507 63.4438Z" fill="#FFFBFB"/>
<path d="M68.3295 82.3525C68.4136 82.8175 70.0222 91.7021 70.0222 95.0957C70.0222 100.27 67.0993 103.961 62.7782 105.445L64.1344 129.002C64.208 130.357 63.062 131.505 61.6111 131.505H54.8823C53.4419 131.505 52.2853 130.367 52.3589 129.002L53.7152 105.445C49.3835 103.961 46.4712 100.26 46.4712 95.0957C46.4712 91.6922 48.0798 82.8175 48.1639 82.3525C48.5004 80.3441 52.9267 80.3144 53.2 82.4613V96.4314C53.3367 96.7678 54.7876 96.748 54.8823 96.4314C55.0295 93.9282 55.7129 82.6592 55.7234 82.402C56.0703 80.3441 60.4231 80.3441 60.7595 82.402C60.7805 82.6691 61.4534 93.9282 61.6006 96.4314C61.6952 96.748 63.1567 96.7678 63.2828 96.4314V82.4613C63.5562 80.3243 67.993 80.3441 68.3295 82.3525ZM80.862 110.619L79.2849 128.932C79.1587 130.318 80.3258 131.505 81.7977 131.505H87.6854C89.0838 131.505 90.2088 130.446 90.2088 129.13V83.2232C90.2088 81.9172 89.0838 80.8487 87.6854 80.8487C79.0115 80.8487 64.4078 98.5091 80.862 110.619Z" fill="#FFFBFB"/>
</svg>
